{
	"asset":{
		"generator":"Khronos glTF Blender I/O v4.0.44",
		"version":"2.0"
	},
	"scene":0,
	"scenes":[
		{
			"name":"Scene",
			"nodes":[
				26
			]
		}
	],
	"nodes":[
		{
			"name":"Bone.024",
			"rotation":[
				-0.017727147787809372,
				0.00016418103768955916,
				-0.003725584363564849,
				0.9998359084129333
			],
			"scale":[
				1,
				0.9999999403953552,
				1
			],
			"translation":[
				2.934490428430081e-10,
				0.023048050701618195,
				1.2496457202360034e-09
			]
		},
		{
			"children":[
				0
			],
			"name":"Bone.023",
			"rotation":[
				-0.01315335277467966,
				1.4300058865046594e-05,
				-0.001084195333532989,
				0.9999129176139832
			],
			"scale":[
				1,
				0.9999998807907104,
				1
			],
			"translation":[
				-2.4559569933302328e-09,
				0.027586765587329865,
				-8.633169734650892e-10
			]
		},
		{
			"children":[
				1
			],
			"name":"Bone.013",
			"rotation":[
				-0.06362792104482651,
				0.0017972186906263232,
				0.028177186846733093,
				0.9975742101669312
			],
			"scale":[
				0.9999998807907104,
				1,
				1.0000001192092896
			],
			"translation":[
				-4.7469859154603e-09,
				0.045333314687013626,
				1.0477378964424133e-09
			]
		},
		{
			"children":[
				2
			],
			"name":"Bone.002",
			"rotation":[
				0.013489623554050922,
				0.03130634129047394,
				0.2822393476963043,
				0.9587382078170776
			],
			"scale":[
				0.9999998211860657,
				0.9999999403953552,
				1
			],
			"translation":[
				1.4033503248356283e-09,
				0.08605341613292694,
				-2.3283064365386963e-10
			]
		},
		{
			"children":[
				3
			],
			"name":"Bone.001",
			"rotation":[
				0.04708969593048096,
				-0.014874092303216457,
				-0.3157963454723358,
				0.9475410580635071
			],
			"translation":[
				0,
				0.04721808806061745,
				0
			]
		},
		{
			"name":"Bone.022",
			"rotation":[
				-0.015767395496368408,
				-0.0007302705780602992,
				0.01958477310836315,
				0.9996836185455322
			],
			"scale":[
				1,
				0.9999998807907104,
				0.9999998807907104
			],
			"translation":[
				1.6197770902337538e-10,
				0.028204388916492462,
				-9.149516699835658e-10
			]
		},
		{
			"children":[
				5
			],
			"name":"Bone.021",
			"rotation":[
				-0.010748345404863358,
				8.056389560806565e-06,
				-0.0007523183012381196,
				0.9999419450759888
			],
			"translation":[
				1.3973797674537991e-09,
				0.030319344252347946,
				-6.509058292358816e-10
			]
		},
		{
			"children":[
				6
			],
			"name":"Bone.014",
			"rotation":[
				-0.0633665919303894,
				-0.0008462656405754387,
				-0.013327055610716343,
				0.9979010224342346
			],
			"scale":[
				0.9999999403953552,
				0.9999999403953552,
				0.9999998211860657
			],
			"translation":[
				2.723441472340937e-10,
				0.04553353041410446,
				7.667040335945785e-10
			]
		},
		{
			"children":[
				7
			],
			"name":"Bone.008",
			"rotation":[
				0.004859796725213528,
				0.015901779755949974,
				0.1375046819448471,
				0.9903615713119507
			],
			"scale":[
				0.9999998807907104,
				0.9999999403953552,
				0.9999999403953552
			],
			"translation":[
				-2.206434146501124e-09,
				0.07286226749420166,
				5.820766091346741e-11
			]
		},
		{
			"children":[
				8
			],
			"name":"Bone.003",
			"rotation":[
				0.05793503671884537,
				-0.006961569655686617,
				-0.13491758704185486,
				0.9891371726989746
			],
			"translation":[
				0,
				0.04721808806061745,
				0
			]
		},
		{
			"name":"Bone.020",
			"rotation":[
				-0.015096408315002918,
				-0.00017539886175654829,
				0.004500925075262785,
				0.9998759031295776
			],
			"translation":[
				-2.6238875516781945e-09,
				0.02547035925090313,
				7.591771655768298e-10
			]
		},
		{
			"children":[
				10
			],
			"name":"Bone.019",
			"rotation":[
				-0.01190146803855896,
				-0.00013669775216840208,
				0.011491150595247746,
				0.9998631477355957
			],
			"scale":[
				0.9999999403953552,
				0.9999999403953552,
				0.9999999403953552
			],
			"translation":[
				2.773354879082035e-09,
				0.026379510760307312,
				-3.718525487528268e-11
			]
		},
		{
			"children":[
				11
			],
			"name":"Bone.015",
			"rotation":[
				-0.06250336766242981,
				-0.0015462709125131369,
				-0.024683233350515366,
				0.9977383017539978
			],
			"scale":[
				0.9999998807907104,
				1,
				0.9999999403953552
			],
			"translation":[
				1.0865891519884485e-10,
				0.04614992067217827,
				9.604264050722122e-10
			]
		},
		{
			"children":[
				12
			],
			"name":"Bone.007",
			"rotation":[
				0.0020677123684436083,
				-0.011185431852936745,
				-0.07767163217067719,
				0.9969141483306885
			],
			"scale":[
				0.9999999403953552,
				1,
				0.9999999403953552
			],
			"translation":[
				-7.312337402254343e-10,
				0.07018877565860748,
				5.529727786779404e-10
			]
		},
		{
			"children":[
				13
			],
			"name":"Bone.004",
			"rotation":[
				0.060176998376846313,
				0.0071046967059373856,
				0.09138870239257812,
				0.9939699769020081
			],
			"scale":[
				1,
				1.0000001192092896,
				1
			],
			"translation":[
				0,
				0.04721808806061745,
				0
			]
		},
		{
			"name":"Bone.018",
			"rotation":[
				-0.023044511675834656,
				0.0002640879829414189,
				-0.005666099023073912,
				0.9997183680534363
			],
			"scale":[
				0.9999999403953552,
				0.9999998807907104,
				1
			],
			"translation":[
				-6.467450575087241e-09,
				0.02578054368495941,
				-1.546140993013978e-09
			]
		},
		{
			"children":[
				15
			],
			"name":"Bone.017",
			"rotation":[
				-0.011758181266486645,
				0.00013829657109454274,
				-0.0117614371702075,
				0.9998617172241211
			],
			"scale":[
				1,
				0.9999999403953552,
				1
			],
			"translation":[
				-5.489539933734022e-09,
				0.02546316757798195,
				8.751150915031758e-10
			]
		},
		{
			"children":[
				16
			],
			"name":"Bone.016",
			"rotation":[
				-0.07696782052516937,
				-0.0025208410806953907,
				-0.032636966556310654,
				0.9964960813522339
			],
			"scale":[
				0.9999998807907104,
				1,
				0.9999999403953552
			],
			"translation":[
				1.8816559421708234e-09,
				0.037506479769945145,
				-7.566995918750763e-10
			]
		},
		{
			"children":[
				17
			],
			"name":"Bone.006",
			"rotation":[
				0.024748902767896652,
				-0.031566936522722244,
				-0.23554551601409912,
				0.9710351824760437
			],
			"scale":[
				1,
				1.0000001192092896,
				0.9999999403953552
			],
			"translation":[
				-7.315975381061435e-09,
				0.08198047429323196,
				-2.3283064365386963e-10
			]
		},
		{
			"children":[
				18
			],
			"name":"Bone.005",
			"rotation":[
				0.04963966831564903,
				0.014966783113777637,
				0.2689038813114166,
				0.9617705941200256
			],
			"scale":[
				0.9999999403953552,
				1,
				1.0000001192092896
			],
			"translation":[
				0,
				0.04721808806061745,
				0
			]
		},
		{
			"name":"Bone.012",
			"rotation":[
				-0.011301551945507526,
				-0.03352397307753563,
				-0.11035313457250595,
				0.9932626485824585
			],
			"translation":[
				4.190951585769653e-09,
				0.03310197591781616,
				6.51925802230835e-09
			]
		},
		{
			"children":[
				20
			],
			"name":"Bone.011",
			"rotation":[
				-0.21305379271507263,
				0.4594217538833618,
				0.0691429078578949,
				0.8595109581947327
			],
			"scale":[
				1,
				0.9999999403953552,
				1
			],
			"translation":[
				-1.2187229003757238e-08,
				0.0306576956063509,
				5.820766091346741e-11
			]
		},
		{
			"children":[
				21
			],
			"name":"Bone.010",
			"rotation":[
				0.10439702868461609,
				-0.019749715924263,
				0.19956479966640472,
				0.9741073846817017
			],
			"scale":[
				1,
				1,
				0.9999998211860657
			],
			"translation":[
				-2.582964953035116e-09,
				0.06050722301006317,
				4.656612873077393e-10
			]
		},
		{
			"children":[
				22
			],
			"name":"Bone.009",
			"rotation":[
				-0.09854595363140106,
				0.0509723424911499,
				-0.48195505142211914,
				0.8691431879997253
			],
			"scale":[
				1.0000001192092896,
				0.9999999403953552,
				1
			],
			"translation":[
				0,
				0.04721808806061745,
				0
			]
		},
		{
			"children":[
				4,
				9,
				14,
				19,
				23
			],
			"name":"Bone",
			"rotation":[
				-2.980232594040899e-08,
				1.1920927533992653e-07,
				0,
				1
			],
			"scale":[
				1,
				0.9999999403953552,
				0.9999999403953552
			],
			"translation":[
				-0.0030980422161519527,
				0,
				0
			]
		},
		{
			"mesh":0,
			"name":"hand",
			"skin":0
		},
		{
			"children":[
				25,
				24
			],
			"name":"Armature"
		}
	],
	"materials":[
		{
			"doubleSided":true,
			"name":"Skin",
			"pbrMetallicRoughness":{
				"baseColorFactor":[
					0.2746773660182953,
					0.14412851631641388,
					0.08650045096874237,
					1
				],
				"metallicFactor":0,
				"roughnessFactor":0.5
			}
		}
	],
	"meshes":[
		{
			"name":"Cube",
			"primitives":[
				{
					"attributes":{
						"POSITION":0,
						"NORMAL":1,
						"TEXCOORD_0":2,
						"JOINTS_0":3,
						"WEIGHTS_0":4
					},
					"indices":5,
					"material":0
				}
			]
		}
	],
	"skins":[
		{
			"inverseBindMatrices":6,
			"joints":[
				24,
				4,
				3,
				2,
				1,
				0,
				9,
				8,
				7,
				6,
				5,
				14,
				13,
				12,
				11,
				10,
				19,
				18,
				17,
				16,
				15,
				23,
				22,
				21,
				20
			],
			"name":"Armature"
		}
	],
	"accessors":[
		{
			"bufferView":0,
			"componentType":5126,
			"count":12817,
			"max":[
				0.10319666564464569,
				0.25848278403282166,
				0.036864299327135086
			],
			"min":[
				-0.06161080673336983,
				-0.0008754123700782657,
				-0.06025852635502815
			],
			"type":"VEC3"
		},
		{
			"bufferView":1,
			"componentType":5126,
			"count":12817,
			"type":"VEC3"
		},
		{
			"bufferView":2,
			"componentType":5126,
			"count":12817,
			"type":"VEC2"
		},
		{
			"bufferView":3,
			"componentType":5121,
			"count":12817,
			"type":"VEC4"
		},
		{
			"bufferView":4,
			"componentType":5126,
			"count":12817,
			"type":"VEC4"
		},
		{
			"bufferView":5,
			"componentType":5123,
			"count":71754,
			"type":"SCALAR"
		},
		{
			"bufferView":6,
			"componentType":5126,
			"count":25,
			"type":"MAT4"
		}
	],
	"bufferViews":[
		{
			"buffer":0,
			"byteLength":153804,
			"byteOffset":0,
			"target":34962
		},
		{
			"buffer":0,
			"byteLength":153804,
			"byteOffset":153804,
			"target":34962
		},
		{
			"buffer":0,
			"byteLength":102536,
			"byteOffset":307608,
			"target":34962
		},
		{
			"buffer":0,
			"byteLength":51268,
			"byteOffset":410144,
			"target":34962
		},
		{
			"buffer":0,
			"byteLength":205072,
			"byteOffset":461412,
			"target":34962
		},
		{
			"buffer":0,
			"byteLength":143508,
			"byteOffset":666484,
			"target":34963
		},
		{
			"buffer":0,
			"byteLength":1600,
			"byteOffset":809992
		}
	],
	"buffers":[
		{
			"byteLength":811592,
			"uri":"jack-hand-4.bin"
		}
	]
}
